<?xml version="1.0" standalone="no"?>
<!DOCTYPE svg PUBLIC "-//W3C//DTD SVG 20010904//EN"
 "http://www.w3.org/TR/2001/REC-SVG-20010904/DTD/svg10.dtd">
<svg version="1.0" xmlns="http://www.w3.org/2000/svg"
 width="860.000000pt" height="824.000000pt" viewBox="0 0 860.000000 824.000000"
 preserveAspectRatio="xMidYMid meet">
<metadata>
Created by potrace 1.16, written by Peter Selinger 2001-2019
</metadata>
<g transform="translate(0.000000,824.000000) scale(0.100000,-0.100000)"
fill="#000000" stroke="none">
<path d="M3920 7750 c-179 -48 -536 -144 -795 -213 -1857 -497 -2760 -739
-2761 -740 -1 -1 11 -96 27 -212 16 -115 28 -213 29 -217 0 -5 137 -8 305 -8
l305 0 0 -485 c0 -462 1 -487 20 -538 25 -67 78 -122 146 -154 l52 -24 3013 1
c1735 0 3027 3 3045 9 80 23 139 76 176 156 23 50 23 53 26 543 l3 492 315 0
c244 0 314 3 314 13 1 6 14 104 29 217 16 113 28 206 27 207 -1 2 -862 237
-1912 523 -1648 449 -1918 520 -1974 519 -49 -1 -147 -23 -390 -89z m561 -296
c446 -84 772 -443 818 -901 53 -515 -294 -994 -795 -1098 -92 -19 -271 -22
-364 -5 -405 71 -726 387 -809 797 -104 511 186 1015 677 1178 137 45 328 57
473 29z"/>
<path d="M4238 7253 c-20 -5 -27 -26 -30 -98 l-3 -50 -45 -13 c-99 -29 -165
-67 -231 -133 -85 -85 -112 -148 -113 -265 0 -72 4 -90 32 -147 58 -116 170
-197 379 -273 125 -45 169 -70 183 -105 26 -61 -38 -109 -146 -109 -132 0
-206 44 -295 176 -53 79 -72 94 -117 94 -59 0 -81 -59 -63 -165 16 -91 47
-170 83 -211 23 -26 50 -40 121 -63 51 -16 115 -32 142 -36 28 -4 56 -12 63
-17 7 -6 12 -34 12 -67 0 -31 5 -62 12 -69 8 -8 45 -12 100 -12 102 0 108 5
108 94 0 53 1 56 28 61 154 31 241 74 328 161 81 81 108 146 108 264 0 71 -4
95 -26 141 -53 117 -140 175 -372 250 -128 41 -160 55 -181 80 -64 77 5 162
118 144 62 -11 107 -37 204 -120 76 -65 92 -75 126 -75 49 0 73 13 92 50 39
74 -1 203 -90 295 -47 48 -75 55 -142 36 -23 -7 -53 -4 -112 11 l-81 20 0 59
c0 83 -18 99 -107 98 -38 -1 -76 -3 -85 -6z"/>
<path d="M1357 5079 c-93 -22 -183 -95 -227 -184 l-25 -50 -3 -1587 c-2 -1582
-2 -1587 18 -1642 26 -69 92 -143 162 -181 74 -40 196 -47 279 -16 79 30 141
88 181 169 l33 67 0 1590 0 1590 -28 57 c-71 144 -235 223 -390 187z"/>
<path d="M2653 5076 c-107 -35 -186 -107 -225 -205 l-23 -56 0 -1575 0 -1575
28 -60 c34 -73 95 -137 162 -173 44 -24 61 -27 150 -27 86 0 107 3 150 24 66
33 131 100 163 169 l27 57 0 1585 0 1585 -27 57 c-37 80 -96 140 -170 173 -74
33 -171 42 -235 21z"/>
<path d="M4223 5076 c-107 -35 -186 -107 -225 -205 l-23 -56 0 -1575 0 -1575
28 -60 c34 -73 95 -137 162 -173 44 -24 61 -27 150 -27 86 0 107 3 150 25 67
33 131 99 163 168 l27 57 0 1585 0 1585 -26 56 c-37 79 -90 133 -165 170 -75
37 -173 47 -241 25z"/>
<path d="M5793 5076 c-107 -35 -186 -107 -225 -205 l-23 -56 0 -1575 0 -1575
28 -60 c34 -73 95 -137 162 -173 44 -24 61 -27 150 -27 86 0 107 3 150 25 67
33 131 99 163 168 l27 57 0 1585 0 1585 -26 56 c-37 79 -90 133 -165 170 -75
37 -173 47 -241 25z"/>
<path d="M7103 5076 c-104 -34 -176 -98 -222 -196 l-26 -55 -3 -1554 c-3
-1713 -6 -1622 59 -1722 36 -56 79 -91 155 -126 50 -23 65 -25 142 -21 68 3
98 10 137 30 99 51 164 138 185 247 6 35 10 585 10 1570 0 1636 1 1581 -53
1674 -74 125 -252 196 -384 153z"/>
<path d="M948 1373 c-17 -20 -165 -242 -454 -680 l-193 -293 4000 0 4000 0
-331 495 -331 495 -3338 0 c-3166 0 -3339 -1 -3353 -17z"/>
</g>
</svg>
