<?xml version="1.0" standalone="no"?>
<!DOCTYPE svg PUBLIC "-//W3C//DTD SVG 20010904//EN"
 "http://www.w3.org/TR/2001/REC-SVG-20010904/DTD/svg10.dtd">
<svg version="1.0" xmlns="http://www.w3.org/2000/svg"
 width="950.000000pt" height="950.000000pt" viewBox="0 0 950.000000 950.000000"
 preserveAspectRatio="xMidYMid meet">
<metadata>
Created by potrace 1.16, written by Peter Selinger 2001-2019
</metadata>
<g transform="translate(0.000000,950.000000) scale(0.100000,-0.100000)"
fill="#000000" stroke="none">
<path d="M3975 8385 c-396 -107 -778 -210 -850 -229 -321 -85 -1634 -436
-1955 -523 -195 -52 -356 -95 -356 -96 -1 -1 11 -96 27 -212 16 -115 28 -213
29 -217 0 -5 137 -8 305 -8 l305 0 0 -485 c0 -462 1 -487 20 -538 25 -67 78
-122 146 -154 l52 -24 3013 1 c1735 0 3027 3 3045 9 80 23 139 76 176 156 23
50 23 53 26 543 l3 492 314 0 314 0 6 43 c27 197 52 392 51 394 -2 3 -265 74
-2387 652 -1234 336 -1444 391 -1500 390 -50 -1 -224 -44 -784 -194z m1020
-203 c198 -56 346 -142 475 -279 297 -312 368 -770 181 -1157 -57 -118 -95
-173 -182 -263 -217 -224 -498 -330 -803 -302 -511 47 -906 486 -906 1007 0
490 326 899 800 1003 112 25 330 20 435 -9z"/>
<path d="M4688 7993 c-20 -5 -27 -26 -30 -98 l-3 -50 -45 -13 c-97 -28 -165
-67 -231 -132 -85 -84 -112 -148 -113 -266 0 -72 4 -90 32 -147 58 -116 170
-197 379 -273 168 -61 208 -95 181 -152 -19 -40 -72 -62 -149 -62 -125 0 -207
50 -288 174 -47 72 -77 96 -119 96 -62 0 -84 -68 -59 -185 21 -99 58 -177 98
-208 37 -27 165 -71 244 -82 28 -4 56 -12 63 -17 7 -6 12 -34 12 -67 0 -31 5
-62 12 -69 8 -8 45 -12 100 -12 102 0 108 5 108 94 0 53 1 56 28 61 152 31
240 74 328 160 81 79 108 146 108 265 0 201 -106 301 -421 399 -108 34 -136
47 -157 72 -64 76 3 160 113 144 65 -10 109 -35 208 -120 76 -65 92 -75 126
-75 49 0 73 13 92 50 39 74 -1 203 -90 295 -47 48 -75 55 -142 36 -23 -7 -53
-4 -112 11 l-81 20 0 59 c0 83 -18 99 -107 98 -38 -1 -76 -3 -85 -6z"/>
<path d="M1807 5819 c-93 -22 -183 -95 -227 -184 l-25 -50 -3 -1587 -2 -1587
21 -57 c27 -71 95 -146 164 -182 72 -37 197 -43 276 -13 79 30 141 88 181 169
l33 67 0 1590 0 1590 -28 57 c-71 144 -235 223 -390 187z"/>
<path d="M3109 5817 c-106 -30 -190 -105 -231 -206 l-23 -56 -3 -1530 c-1
-911 1 -1554 7 -1591 18 -116 82 -208 184 -261 47 -25 63 -28 152 -28 86 0
107 3 150 25 67 33 131 99 163 168 l27 57 0 1585 0 1585 -27 57 c-72 155 -244
239 -399 195z"/>
<path d="M4673 5816 c-109 -35 -194 -117 -230 -218 -17 -51 -18 -125 -18
-1618 0 -1540 0 -1566 20 -1619 25 -68 101 -153 169 -189 45 -24 62 -27 151
-27 86 0 107 3 150 24 66 33 125 94 161 167 l29 59 0 1585 0 1585 -26 56 c-37
79 -90 133 -165 170 -75 37 -173 47 -241 25z"/>
<path d="M6243 5816 c-107 -35 -186 -107 -225 -205 l-23 -56 0 -1575 0 -1575
31 -66 c37 -78 85 -129 157 -166 47 -25 62 -28 152 -28 86 0 107 3 150 24 66
33 131 100 163 169 l27 57 0 1585 0 1585 -26 56 c-37 79 -90 133 -165 170 -75
37 -173 47 -241 25z"/>
<path d="M7553 5816 c-104 -34 -176 -98 -222 -196 l-26 -55 -3 -1554 c-3
-1713 -6 -1622 59 -1722 33 -52 69 -83 139 -120 39 -21 59 -24 145 -24 90 0
105 3 153 28 98 52 161 137 182 246 6 35 10 585 10 1570 0 1636 1 1581 -53
1674 -74 125 -252 196 -384 153z"/>
<path d="M1311 1987 c-52 -78 -199 -301 -328 -494 l-232 -353 4000 0 4000 0
-331 495 -331 495 -3342 0 -3342 -1 -94 -142z"/>
</g>
</svg>
