<?xml version="1.0" standalone="no"?>
<!DOCTYPE svg PUBLIC "-//W3C//DTD SVG 20010904//EN"
 "http://www.w3.org/TR/2001/REC-SVG-20010904/DTD/svg10.dtd">
<svg version="1.0" xmlns="http://www.w3.org/2000/svg"
 width="612.000000pt" height="612.000000pt" viewBox="0 0 612.000000 612.000000"
 preserveAspectRatio="xMidYMid meet"  >
<metadata>
Created by potrace 1.16, written by Peter Selinger 2001-2019
</metadata>
<g transform="translate(0.000000,612.000000) scale(0.100000,-0.100000)"
fill="#000000" stroke="none">
<path d="M2815 5273 c-217 -18 -440 -54 -522 -85 -87 -32 -148 -95 -173 -177
-20 -65 -21 -94 -27 -1471 -6 -1476 -5 -1510 38 -1610 27 -63 91 -122 161
-148 81 -30 343 -79 498 -93 201 -18 638 -3 766 26 16 4 25 20 39 72 10 38 40
130 66 205 27 75 49 139 49 142 0 3 -335 6 -745 6 l-745 0 0 1370 0 1370 835
0 836 0 -2 -906 c0 -498 1 -907 2 -908 2 -2 30 -7 62 -10 l57 -7 0 949 c0 916
-1 952 -20 1014 -23 76 -69 125 -150 162 -68 31 -324 81 -487 95 -110 10 -439
13 -538 4z m409 -159 c9 -8 16 -22 16 -29 0 -7 -7 -21 -16 -29 -13 -13 -42
-16 -165 -16 -85 0 -159 5 -170 10 -24 13 -25 56 -1 69 9 6 84 11 169 11 125
0 154 -3 167 -16z m-114 -3059 c39 -11 87 -63 100 -109 31 -113 -71 -222 -185
-196 -80 18 -125 74 -125 155 0 80 46 137 123 155 32 8 42 7 87 -5z"/>
<path d="M1850 4069 c-76 -30 -140 -123 -140 -203 0 -71 21 -117 87 -187 63
-66 75 -89 49 -89 -28 0 -104 -80 -120 -127 -35 -104 -8 -189 92 -287 l61 -60
-37 -16 c-49 -22 -108 -89 -121 -137 -28 -98 -3 -171 89 -267 33 -34 60 -65
60 -68 0 -3 -14 -11 -30 -18 -43 -18 -108 -95 -121 -144 -15 -56 -5 -130 25
-180 28 -45 312 -343 320 -335 3 2 1 22 -4 44 -6 23 -10 469 -10 1046 l0 1007
-40 16 c-45 18 -122 20 -160 5z"/>
<path d="M3415 3091 c-58 -24 -115 -130 -115 -214 0 -64 17 -152 37 -194 28
-59 97 -121 176 -158 57 -27 101 -38 213 -54 78 -12 155 -21 172 -21 61 0 66
-9 26 -52 -59 -65 -109 -152 -162 -276 -51 -122 -125 -340 -137 -405 -4 -20
-10 -39 -14 -42 -16 -9 -299 -35 -456 -41 -273 -10 -596 23 -800 81 -44 13
-82 22 -84 19 -7 -6 52 -116 105 -195 56 -83 211 -244 297 -309 l58 -43 -3
-81 c-3 -79 -4 -81 -29 -84 -39 -5 -74 -90 -99 -242 -11 -69 -23 -137 -26
-152 l-6 -28 771 0 c580 0 771 3 771 12 0 47 -56 308 -75 353 -21 46 -29 55
-50 55 l-25 0 0 99 0 98 56 37 c123 82 251 242 313 391 81 194 101 356 101
815 0 236 -3 307 -15 348 -36 120 -140 197 -263 195 -214 -4 -542 36 -620 76
-43 22 -82 26 -117 12z"/>
</g>

</svg>
