<?xml version="1.0" standalone="no"?>
<!DOCTYPE svg PUBLIC "-//W3C//DTD SVG 20010904//EN"
 "http://www.w3.org/TR/2001/REC-SVG-20010904/DTD/svg10.dtd">
<svg version="1.0" xmlns="http://www.w3.org/2000/svg"
 width="330.000000pt" height="153.000000pt" viewBox="0 0 330.000000 153.000000"
 preserveAspectRatio="xMidYMid meet">
<metadata>
Created by potrace 1.16, written by Peter Selinger 2001-2019
</metadata>
<g transform="translate(0.000000,153.000000) scale(0.100000,-0.100000)"
fill="#000000" stroke="none">
<path d="M1400 1371 c-90 -13 -157 -59 -196 -134 -20 -39 -26 -69 -31 -154
l-6 -105 -41 5 c-23 3 -50 2 -60 -2 -16 -6 -5 -24 86 -132 58 -68 111 -124
118 -124 8 0 61 56 119 125 l105 125 -54 3 c-30 2 -59 7 -64 12 -4 4 -8 43 -7
86 2 123 48 193 138 212 35 7 38 11 41 45 3 31 0 37 -16 37 -11 0 -32 2 -48 4
-16 2 -54 1 -84 -3z"/>
<path d="M1620 1335 l0 -35 130 0 c80 0 130 -4 130 -10 0 -14 36 -13 58 1 12
8 38 9 73 5 50 -6 56 -10 74 -44 11 -21 36 -46 57 -57 38 -20 38 -20 38 -86 0
-64 -1 -66 -32 -80 -28 -12 -70 -59 -80 -90 -2 -6 -110 -12 -276 -15 -244 -5
-275 -7 -291 -23 -10 -10 -20 -25 -24 -34 -6 -16 23 -17 382 -17 339 0 390 2
395 15 8 21 9 482 1 495 -4 6 -121 10 -321 10 l-314 0 0 -35z"/>
<path d="M1745 1238 c-84 -46 -94 -172 -20 -237 30 -26 44 -31 87 -31 47 0 54
3 90 40 35 38 38 45 38 98 0 59 -13 89 -55 124 -23 20 -108 24 -140 6z"/>
<path d="M2004 783 c-7 -10 -50 -63 -98 -117 -47 -55 -86 -106 -86 -113 0 -9
17 -13 61 -13 l62 0 -5 -88 c-7 -126 -38 -175 -134 -211 -45 -18 -49 -22 -49
-52 l0 -34 68 -3 c197 -9 307 100 307 303 l0 85 61 0 c47 0 60 3 57 14 -6 26
-200 246 -217 246 -9 0 -21 -8 -27 -17z"/>
<path d="M1052 668 c-9 -9 -12 -79 -12 -255 0 -229 1 -243 19 -253 12 -6 132
-10 320 -10 l301 0 0 40 0 40 -219 0 -220 0 -23 43 c-15 27 -37 49 -60 60
l-38 19 0 68 c0 63 2 68 24 74 27 7 86 69 86 91 0 13 40 15 272 15 l272 0 28
27 c56 54 61 53 -355 53 -285 0 -386 -3 -395 -12z"/>
<path d="M1430 542 c-113 -61 -80 -252 47 -269 97 -13 174 86 145 186 -26 84
-117 124 -192 83z"/>
</g>
</svg>
